<svg id="Layer_1" data-name="Layer 1" xmlns="http://www.w3.org/2000/svg" viewBox="0 0 864.97 453.22"><defs><style>.cls-1{fill:#3ac644;}.cls-2{fill:#3fc748;}.cls-3{fill:#49c952;}</style></defs><g id="your-mom-gay.tif"><path d="M532.41,376.24c-3.44-7.61-7.77-14.36-11.78-21.26-3.31-5.67-6.72-11.34-9.59-17.18-1.78-3.6-.6-8.49-.26-12.78a2.06,2.06,0,0,1,2.2-1.67c1.17,0,2.33,0,3.5,0h43.45a49.59,49.59,0,0,1,26.39,7c14.32,8.71,21.81,23.87,17,40.74A31.93,31.93,0,0,1,590,389.54c-5.17,3.37-10.23,6.54-16.36,7.79-1.37.28-2.62,1-1.37,3.14,7.16,12.31,14.08,24.78,21.24,37.1,1.92,3.32,3.4,6.86,5.78,9.95,2.09,2.74.67,5.44-2.83,5.55-6,.17-12,0-18,.07-2,0-3.11-1.3-3.88-2.66-3.16-5.54-6-11.26-9.2-16.81-5.07-8.89-10.31-17.69-15.42-26.56a55.56,55.56,0,0,1-2.46-5.24c-.85-1.92-2-2.94-4.4-2.67-3,.33-6.87-.92-8.68.57-2.21,1.82-.73,5.9-.76,9-.1,12.47-.21,24.95,0,37.42.11,5.38-1.21,7.43-7.25,7-3.65-.26-7.33,0-11-.06-3.44-.07-4.87-1.37-4.88-4.7,0-23.11,0-46.23-.09-69.34,0-2.71,1.12-2.89,3.26-2.86C519.88,376.31,526,376.24,532.41,376.24Zm9.52-30c5.61,10.13,10.75,19.45,15.94,28.74.62,1.11,1.77,1.25,3,1.29,5,.16,9.38-1.57,13.88-3.6,8.54-3.84,9.33-16.63,2.1-21.41a25.86,25.86,0,0,0-8.17-3.9c-8.6-2-17.26-.55-26.76-1.12Z"/><path d="M735.31,387.69c-.62-35.07,29.4-63,61.41-64.53,39.18-1.86,68.93,30.79,68.4,64.91-.58,36.64-28.6,64.47-64.88,64.8a64.52,64.52,0,0,1-64.94-64.08C735.3,388.42,735.3,388.06,735.31,387.69Zm23-.06C756.79,410.75,777.11,430.35,800,430c23.77-.39,41.93-17.8,42-41.57.13-24.88-18.68-42.68-41.7-42.82-22.65-.13-42.39,16.86-42,42Z"/><path d="M622.45,387.83q0-29.65,0-59.3c0-5.18,0-5.2,5.33-5.2,10.14,0,20.29.08,30.43,0,13.2-.14,25,3.83,35.91,11.19,14.31,9.68,23.51,23,27.1,39.69,4,18.57.34,36.1-11,51.56-9.8,13.38-22.64,22.35-39.29,25.45A109.85,109.85,0,0,1,649,453.12c-6.65-.1-13.31-.27-19.95.06-5.34.27-6.76-1.88-6.71-6.55C622.57,427,622.45,407.43,622.45,387.83Zm23.06.59c0,12.78.06,25.57,0,38.36,0,2.47.45,3.56,3.23,3.36,5.72-.41,11.44.15,17.21-.93,11.2-2.1,19.8-8.16,26.38-16.92,7.31-9.75,9.37-21.3,6.89-33-3.22-15.18-12.57-25.63-27.46-31-7.39-2.68-14.92-1.54-22.41-2-3-.19-3.93.6-3.88,3.78.21,12.78.09,25.57.09,38.36Z"/><path d="M336.36,376.22c-3.52-6-6.42-11.45-9.88-16.56-4.41-6.51-8.08-13.46-12.43-20-2.86-4.31-1.2-9.66-1-14.52.09-2.3,2.78-1.79,4.55-1.79,14.14,0,28.28.08,42.42-.06a50.48,50.48,0,0,1,18.13,3.09c12.78,4.73,23,12.33,26.66,26.27,2.9,11.07.69,21.13-6.83,29.92-8.1,9.46-18.41,14.32-30.76,15.9-4.46.57-8.84.54-13.25.79-5.93.33-11.89-.58-17.8.49-.72,5.94-.24,11.9-.3,17.85-.09,9.8,0,19.61,0,29.41,0,5.4-.67,6.07-6,6.1q-5.49,0-11,0c-5.37,0-6.07-.7-6.08-6q0-27.93,0-55.84c0-3.83.15-7.66-.06-11.47-.15-2.72.63-3.71,3.51-3.62C322.69,376.36,329.14,376.22,336.36,376.22Zm7.89-30.77c6.28,10.34,12.13,20,18,29.67a2.45,2.45,0,0,0,3.06,1c4.71-1.51,9.6-2.66,13.55-5.87,3.12-2.54,4.53-6.24,4.05-10.69-.72-6.72-5.57-9.06-10.67-11.13-8.7-3.53-17.89-3.2-28-3Z"/><path d="M192,452.12h-6.48c-5,0-5.48-.12-6.38-4.72-1.39-7.12-3.73-14-5-21.1-.42-2.3-1.22-3.16-3.45-3.14-7.32,0-14.64.07-22,0-1.83,0-2.35.54-2.78,2.37-1.74,7.48-4,14.85-5.68,22.34-.67,3-1.55,4.53-5,4.35-5.14-.28-10.31-.1-15.46-.06-2.66,0-3.61-.88-2.88-3.72,2.67-10.41,5.11-20.88,7.7-31.31q7.17-29,14.42-57.9,4-16.11,8-32.22c.58-2.36,1.89-3.7,4.47-3.68q8.47.07,17,0c2.09,0,3.18.53,3.72,2.9,1.77,7.79,4,15.48,5.9,23.24q6,24.21,12,48.45c.46,1.9,1.59,2.28,3.23,2.27,2.5,0,5,0,7.49,0,2.3,0,3.32,1,3.29,3.29-.05,5.15,0,10.3,0,15.45,0,2.73-1.52,4.46-4.3,4.22-2.94-.24-3.14,1.56-2.56,3.34,2.25,6.86,3.46,14,5.49,20.87,1.25,4.24.79,4.77-3.67,4.8C196.62,452.14,194.29,452.12,192,452.12ZM152,400.17c4,0,7.8,0,11.61,0s3.83-.13,2.84-4c-1.85-7.15-3.72-14.3-5.44-21.49-.3-1.26-.06-2.61-1.77-3.16C156.9,381,154.51,390.38,152,400.17Z"/><path d="M479.72,452.12h-6.49c-5.17,0-5.36-.14-6.57-5.12-1.69-7-3.46-14-5-21.11-.44-2.1-1.4-2.74-3.33-2.73-7.49,0-15,.07-22.46,0-1.79,0-1.94.81-2.3,2.3-1.82,7.47-4.14,14.82-5.72,22.34-.71,3.43-2,4.61-5.41,4.41-4.47-.26-9-.06-13.47-.07-4.87,0-5.47-.69-4.28-5.57,2.71-11.06,5.54-22.09,8.32-33.13q6.82-27.06,13.62-54.12,4-16.1,8-32.22c.65-2.65,2.16-3.82,4.89-3.78q8.24.12,16.47,0c2.36,0,3.15.84,3.86,3.29,2.92,10.15,5.18,20.46,7.82,30.68,3.48,13.48,6.73,27,10,40.54.45,1.88,1.49,2.37,3.15,2.36,2.33,0,4.67.09,7,0,2.72-.15,4,.86,3.9,3.71-.13,4.82-.07,9.64,0,14.46,0,2.95-1.19,4.9-4.25,4.8s-3.07,1.52-2.49,3.71c1.86,6.95,3.73,13.9,5.54,20.86.93,3.56.3,4.39-3.29,4.44C484.71,452.15,482.21,452.12,479.72,452.12Zm-32.51-80.78c-2.72,7.86-3.89,15.91-6.41,23.61-1.67,5.13-1.4,5.22,4.3,5.22,2.16,0,4.34-.17,6.48,0,2.8.29,3.67-.85,2.92-3.38-1.56-5.25-2.65-10.62-4.1-15.88-.86-3.12-.7-6.75-3.19-9.61Z"/><path d="M.16,385.37a68.34,68.34,0,0,1,15.12-38.83c10.3-12.57,23.5-20,39-23.05,16.94-3.32,32.69,1,47.2,9.95,4.12,2.55,3.85,3.31.28,6.86-3,3-6.69,5.27-9.64,8.41-1.93,2.05-3.76,3-7.47,1.19a41.81,41.81,0,0,0-25.89-3.82,42.56,42.56,0,0,0-22.21,10.56,40.19,40.19,0,0,0-12.49,22.82,40.62,40.62,0,0,0,7.19,32.61A41.45,41.45,0,0,0,59,429.27c11.1,1.9,20.72-.82,29.89-6.51,1.59-1,2.85-.88,3.85.55a85.71,85.71,0,0,0,10.38,12.28c2.1,2,1.84,3.77-.41,5.45a58.26,58.26,0,0,1-22.72,10c-5,1.11-10.34,2.2-15.42,1.85-7-.48-14.14-1.36-20.86-3.9a67.43,67.43,0,0,1-25.65-17.28A63,63,0,0,1,3.87,408.38,66.23,66.23,0,0,1,.16,385.37Z"/><path d="M224.91,388.2V328.89c0-5.54,0-5.54,5.49-5.56,4.66,0,9.31.06,14,0,1.78,0,2.22.53,2.82,2.33a17.77,17.77,0,0,1,.71,5.8q0,46.35,0,92.7a22.94,22.94,0,0,1,0,3c-.35,2.48.73,3.06,3.09,3,8.14-.13,16.29-.05,24.44-.05,5.16,0,10.32.12,15.47,0,3-.1,4.17,1.07,4.06,4.08-.16,4.65,0,9.3-.06,14,0,3.67-1.35,5-5.07,5q-29.94.06-59.87,0c-4.53,0-5.05-.64-5.05-5.07Q224.9,418.1,224.91,388.2Z"/><path class="cls-1" d="M457,106.35c0,8,0,16,0,23.92,0,2.28-.2,3.64-3.16,3.6-14.12-.15-28.25-.11-42.38,0-2.42,0-3.14-.77-3.12-3.14.11-15.94-.16-31.89.19-47.82.28-12.74,11.39-23.12,24.17-22.88,15,.28,24.3,12.54,24.22,22.93-.07,7.8,0,15.61,0,23.41ZM433.45,67a17.19,17.19,0,0,0-15.81,11.22c-1.46,4.25.4,8.39,4.34,9.64,4.11,1.3,7.11-.45,8.68-5,1.24-3.67,2.46-4.35,6.28-3.5.8.18,1.58.49,2.39.6,1.93.26,3.68-.07,4.78-1.89s.54-3.59-.53-5.14A13,13,0,0,0,433.45,67Z"/><path class="cls-2" d="M427,258.82c0,.42,0,1.83-.7,2.43s-2.5.6-3,.62a5.54,5.54,0,0,1-2.87-.47,2.6,2.6,0,0,1-.85-2l.26-22.82-.18-45.36c0-12.63,0-25.26,0-37.9,0-5.51,0-4.62-7.77-4.8-2.76-.06-5.53,0-8.29.07-2.36.06-3.41-.63-3.52-3.3-.29-7.66-.42-7.66,7.13-7.66h52.91c5.2,0,5.2,0,5.22,5,0,1-.06,2,0,3,.12,2.09-.77,3-2.88,2.94-3.43-.05-6.87-.15-10.3-.05-6.25.16-6.32-.55-6.33,4.15q0,31.67,0,63.33c0,1.78,0,3.56,0,5.34,0,.9.11,2.85-.34,3.48-.79,1.08-1.77.88-3.26.88-1.18,0-2.34.22-3.4-.67-.81-.68-.5-2.93-.53-4-.05-1.82,0-3,0-4.83,0-21.28,0-41.36,0-62.63,0-5,0-5-5.22-5.06-1,0-2,.06-3,0-2.05-.15-3.18.56-3,2.8.09,1.16,0,2.33,0,3.49q0,39.39,0,78.78Z"/><path class="cls-3" d="M366.75,91.66c-6.3,0-12.61-.19-18.9.07-3.63.15-3-2.08-3.06-4.2s-.3-3.8,2.93-3.75c12.77.18,25.54.21,38.31,0,3.88-.07,3.08,2.19,3.29,4.43.22,2.49-.38,3.59-3.16,3.51C379.7,91.54,373.22,91.66,366.75,91.66Z"/><path class="cls-3" d="M498.65,83.85c6.31,0,12.62.17,18.92-.07,3-.11,3.2,1.41,3.06,3.63-.13,2,.73,4.35-2.93,4.31q-19.43-.23-38.83,0c-3.35,0-2.72-1.92-2.78-3.88-.06-2.26-.3-4.19,3.15-4.06C485.7,84,492.18,83.85,498.65,83.85Z"/><path class="cls-2" d="M436.69,22.31c0,6.3-.15,12.6.06,18.89.13,3.77-2.4,2.69-4.32,2.8s-3.84.44-3.79-2.85q.3-19.14,0-38.28C428.61-.9,431.06.17,433,.06s3.91-.42,3.78,2.87C436.51,9.38,436.7,15.85,436.69,22.31Z"/><path class="cls-2" d="M389,38.34c4.45,4.45,8.79,9,13.38,13.33,2.75,2.58.2,3.6-1.09,5s-2.4,3-4.69.66q-13.31-13.76-27-27.12c-2.7-2.63-.22-3.6,1.07-5s2.48-3.07,4.71-.64C379.74,29.31,384.44,33.76,389,38.34Z"/><path class="cls-2" d="M482.28,44.11c-4.42,4.48-9,8.86-13.22,13.49-2.56,2.77-3.6.23-5-1.05s-3-2.38-.69-4.69Q477,38.45,490.21,24.62c2.61-2.71,3.61-.24,5.06,1s3.08,2.45.68,4.7C491.23,34.77,486.82,39.51,482.28,44.11Z"/></g></svg>