<svg id="Layer_1" data-name="Layer 1" xmlns="http://www.w3.org/2000/svg" viewBox="0 0 892.04 518.41"><defs><style>.cls-1{fill:#3ac644;}.cls-2{fill:#3fc748;}.cls-3{fill:#49c952;}</style></defs><path d="M532.26,376.24c-3.45-7.61-7.77-14.36-11.79-21.26-3.3-5.67-6.72-11.34-9.59-17.18-1.77-3.6-.59-8.49-.25-12.78a2.06,2.06,0,0,1,2.2-1.67c1.16,0,2.33,0,3.49,0h43.45a49.59,49.59,0,0,1,26.39,7c14.32,8.71,21.82,23.87,17,40.74a31.94,31.94,0,0,1-13.34,18.47c-5.17,3.37-10.23,6.54-16.36,7.79-1.36.28-2.62,1-1.37,3.14,7.17,12.31,14.09,24.78,21.24,37.1,1.92,3.32,3.41,6.86,5.78,9.95,2.1,2.74.68,5.44-2.82,5.55-6,.17-12,0-18,.07-2,0-3.1-1.3-3.87-2.66-3.17-5.54-6-11.26-9.2-16.81-5.08-8.89-10.32-17.69-15.43-26.56a55.48,55.48,0,0,1-2.45-5.24c-.86-1.92-2-2.94-4.41-2.67-2.94.33-6.87-.92-8.68.57-2.21,1.82-.73,5.9-.75,9-.11,12.47-.22,24.95,0,37.42.11,5.38-1.2,7.43-7.25,7-3.64-.26-7.32,0-11-.06-3.44-.07-4.87-1.37-4.88-4.7-.05-23.11,0-46.23-.09-69.34,0-2.71,1.12-2.89,3.25-2.86C519.73,376.31,525.85,376.24,532.26,376.24Zm9.52-30c5.61,10.13,10.75,19.45,15.94,28.74.62,1.11,1.77,1.25,3,1.29,5,.16,9.38-1.57,13.87-3.6,8.55-3.84,9.33-16.63,2.1-21.41a25.86,25.86,0,0,0-8.17-3.9c-8.59-2-17.25-.55-26.75-1.12Z"/><path d="M735.15,387.69c-.62-35.07,29.4-63,61.42-64.53C835.74,321.3,865.49,354,865,388.07c-.57,36.64-28.59,64.47-64.87,64.8a64.52,64.52,0,0,1-64.94-64.08Zm23-.06C756.64,410.75,777,430.35,799.85,430c23.77-.39,41.92-17.8,42-41.57.12-24.88-18.69-42.68-41.71-42.82-22.64-.13-42.38,16.86-42,42Z"/><path d="M622.3,387.83v-59.3c0-5.18,0-5.2,5.34-5.2,10.14,0,20.28.08,30.43,0,13.2-.14,25,3.83,35.91,11.19,14.31,9.68,23.51,23,27.09,39.69,4,18.57.35,36.1-11,51.56-9.8,13.38-22.63,22.35-39.28,25.45a109.85,109.85,0,0,1-21.94,1.93c-6.65-.1-13.32-.27-20,.06-5.34.27-6.76-1.88-6.71-6.55C622.42,427,622.3,407.43,622.3,387.83Zm23.05.59c0,12.78.06,25.57-.05,38.36,0,2.47.46,3.56,3.23,3.36,5.73-.41,11.44.15,17.21-.93,11.21-2.1,19.81-8.16,26.38-16.92,7.31-9.75,9.37-21.3,6.9-33-3.22-15.18-12.57-25.63-27.46-31-7.39-2.68-14.93-1.54-22.41-2-3-.19-3.93.6-3.88,3.78.21,12.78.08,25.57.08,38.36Z"/><path d="M336.2,376.22c-3.52-6-6.41-11.45-9.88-16.56-4.41-6.51-8.08-13.46-12.43-20-2.86-4.31-1.2-9.66-1-14.52.09-2.3,2.78-1.79,4.56-1.79,14.14,0,28.28.08,42.42-.06A50.43,50.43,0,0,1,378,326.37c12.78,4.73,23,12.33,26.66,26.27,2.91,11.07.69,21.13-6.82,29.92-8.11,9.46-18.42,14.32-30.77,15.9-4.45.57-8.84.54-13.25.79-5.92.33-11.89-.58-17.79.49-.72,5.94-.25,11.9-.3,17.85-.09,9.8,0,19.61,0,29.41,0,5.4-.68,6.07-6,6.1q-5.49,0-11,0c-5.37,0-6.07-.7-6.07-6q0-27.93,0-55.84c0-3.83.16-7.66-.05-11.47-.15-2.72.63-3.71,3.51-3.62C322.53,376.36,329,376.22,336.2,376.22Zm7.9-30.77c6.27,10.34,12.12,20,18,29.67a2.44,2.44,0,0,0,3,1c4.71-1.51,9.6-2.66,13.55-5.87,3.13-2.54,4.54-6.24,4.06-10.69-.73-6.72-5.57-9.06-10.68-11.13-8.7-3.53-17.89-3.2-28-3Z"/><path d="M191.81,452.12h-6.49c-5,0-5.47-.12-6.37-4.72-1.39-7.12-3.74-14-5-21.1-.43-2.3-1.23-3.16-3.46-3.14-7.32,0-14.64.07-21.95,0-1.83,0-2.35.54-2.78,2.37-1.75,7.48-4,14.85-5.68,22.34-.67,3-1.56,4.53-5,4.35-5.14-.28-10.31-.1-15.47-.06-2.66,0-3.6-.88-2.87-3.72,2.67-10.41,5.11-20.88,7.69-31.31q7.19-29,14.42-57.9,4-16.11,8-32.22c.59-2.36,1.9-3.7,4.47-3.68q8.49.07,17,0c2.08,0,3.18.53,3.72,2.9,1.77,7.79,4,15.48,5.89,23.24q6.06,24.21,12,48.45c.47,1.9,1.6,2.28,3.24,2.27,2.49,0,5,0,7.48,0,2.31,0,3.32,1,3.3,3.29-.05,5.15,0,10.3,0,15.45,0,2.73-1.51,4.46-4.3,4.22-2.94-.24-3.14,1.56-2.55,3.34,2.24,6.86,3.45,14,5.49,20.87,1.25,4.24.78,4.77-3.67,4.8C196.47,452.14,194.14,452.12,191.81,452.12Zm-39.93-51.95c4,0,7.81,0,11.61,0s3.83-.13,2.84-4c-1.85-7.15-3.72-14.3-5.44-21.49-.3-1.26,0-2.61-1.76-3.16C156.74,381,154.36,390.38,151.88,400.17Z"/><path d="M479.57,452.12h-6.49c-5.17,0-5.37-.14-6.57-5.12-1.7-7-3.47-14-5-21.11-.45-2.1-1.4-2.74-3.34-2.73-7.48,0-15,.07-22.45,0-1.79,0-1.95.81-2.31,2.3-1.82,7.47-4.14,14.82-5.71,22.34-.72,3.43-2,4.61-5.41,4.41-4.48-.26-9-.06-13.47-.07-4.87,0-5.48-.69-4.28-5.57,2.71-11.06,5.54-22.09,8.32-33.13l13.62-54.12q4-16.1,8-32.22c.64-2.65,2.16-3.82,4.89-3.78q8.22.12,16.46,0c2.37,0,3.16.84,3.86,3.29,2.92,10.15,5.18,20.46,7.82,30.68,3.49,13.48,6.74,27,10,40.54.45,1.88,1.49,2.37,3.16,2.36,2.33,0,4.66.09,7,0,2.73-.15,4,.86,3.91,3.71-.13,4.82-.08,9.64,0,14.46,0,2.95-1.19,4.9-4.25,4.8s-3.07,1.52-2.49,3.71c1.85,6.95,3.72,13.9,5.54,20.86.93,3.56.29,4.39-3.29,4.44C484.55,452.15,482.06,452.12,479.57,452.12Zm-32.52-80.78c-2.71,7.86-3.88,15.91-6.4,23.61-1.68,5.13-1.4,5.22,4.3,5.22,2.16,0,4.34-.17,6.48,0,2.79.29,3.67-.85,2.91-3.38-1.56-5.25-2.64-10.62-4.09-15.88-.87-3.12-.71-6.75-3.2-9.61Z"/><path d="M0,385.37a68.27,68.27,0,0,1,15.12-38.83c10.29-12.57,23.49-20,39-23.05,16.93-3.32,32.68,1,47.2,9.95,4.12,2.55,3.84,3.31.27,6.86-3,3-6.68,5.27-9.63,8.41-1.93,2.05-3.77,3-7.48,1.19a41.8,41.8,0,0,0-25.89-3.82,42.53,42.53,0,0,0-22.2,10.56,40.13,40.13,0,0,0-12.49,22.82,40.61,40.61,0,0,0,7.18,32.61,41.49,41.49,0,0,0,27.73,17.2c11.1,1.9,20.71-.82,29.88-6.51,1.6-1,2.86-.88,3.86.55A85.07,85.07,0,0,0,103,435.59c2.09,2,1.84,3.77-.41,5.45a58.39,58.39,0,0,1-22.72,10c-5,1.11-10.34,2.2-15.43,1.85-7-.48-14.14-1.36-20.86-3.9A67.43,67.43,0,0,1,17.9,431.72,63,63,0,0,1,3.72,408.38,66,66,0,0,1,0,385.37Z"/><path d="M224.75,388.2V328.89c0-5.54,0-5.54,5.49-5.56,4.66,0,9.32.06,14,0,1.79,0,2.22.53,2.82,2.33a17.5,17.5,0,0,1,.71,5.8q.06,46.35,0,92.7a21.3,21.3,0,0,1,0,3c-.34,2.48.74,3.06,3.09,3,8.15-.13,16.3-.05,24.45-.05,5.15,0,10.31.12,15.46,0,3.05-.1,4.17,1.07,4.07,4.08-.16,4.65,0,9.3-.06,14-.06,3.67-1.36,5-5.07,5q-29.94.06-59.87,0c-4.53,0-5.05-.64-5.05-5.07Q224.75,418.1,224.75,388.2Z"/><path class="cls-1" d="M456.84,106.35c0,8,0,16,0,23.92,0,2.28-.21,3.64-3.16,3.6-14.13-.15-28.26-.11-42.39,0-2.41,0-3.13-.77-3.12-3.14.11-15.94-.15-31.89.2-47.82.28-12.74,11.38-23.12,24.16-22.88,15,.28,24.3,12.54,24.22,22.93-.06,7.8,0,15.61,0,23.41ZM433.29,67a17.19,17.19,0,0,0-15.8,11.22c-1.47,4.25.39,8.39,4.34,9.64,4.1,1.3,7.11-.45,8.67-5,1.25-3.67,2.46-4.35,6.29-3.5.8.18,1.58.49,2.39.6,1.92.26,3.68-.07,4.78-1.89s.53-3.59-.53-5.14A13.07,13.07,0,0,0,433.29,67Z"/><path class="cls-2" d="M426.87,258.82c0,.42,0,1.83-.71,2.43s-2.49.6-3,.62a5.53,5.53,0,0,1-2.87-.47,2.6,2.6,0,0,1-.85-2l.26-22.82q-.1-22.68-.19-45.36c0-12.63,0-25.26,0-37.9,0-5.51,0-4.62-7.78-4.8-2.76-.06-5.52,0-8.29.07-2.36.06-3.41-.63-3.51-3.3-.3-7.66-.42-7.66,7.13-7.66h52.91c5.2,0,5.2,0,5.21,5,0,1-.05,2,0,3,.11,2.09-.78,3-2.88,2.94-3.44-.05-6.87-.15-10.3-.05-6.25.16-6.32-.55-6.33,4.15q0,31.67,0,63.33c0,1.78,0,3.56,0,5.34,0,.9.11,2.85-.35,3.48-.79,1.08-1.77.88-3.26.88-1.18,0-2.34.22-3.4-.67-.81-.68-.49-2.93-.52-4,0-1.82,0-3,0-4.83,0-21.28,0-41.36,0-62.63,0-5,0-5-5.21-5.06-1,0-2,.06-3,0-2-.15-3.18.56-3,2.8.08,1.16,0,2.33,0,3.49q0,39.39,0,78.78Z"/><path class="cls-3" d="M366.6,91.66c-6.3,0-12.61-.19-18.91.07-3.63.15-3-2.08-3.06-4.2s-.3-3.8,2.93-3.75c12.77.18,25.55.21,38.32,0,3.87-.07,3.08,2.19,3.28,4.43.23,2.49-.37,3.59-3.15,3.51C379.54,91.54,373.07,91.66,366.6,91.66Z"/><path class="cls-3" d="M498.5,83.85c6.3,0,12.62.17,18.91-.07,3-.11,3.21,1.41,3.06,3.63-.13,2,.73,4.35-2.93,4.31q-19.41-.23-38.83,0c-3.35,0-2.72-1.92-2.77-3.88-.06-2.26-.3-4.19,3.14-4.06C485.55,84,492,83.85,498.5,83.85Z"/><path class="cls-2" d="M436.54,22.31c0,6.3-.16,12.6.06,18.89.12,3.77-2.4,2.69-4.33,2.8s-3.83.44-3.78-2.85q.28-19.14,0-38.28C428.46-.9,430.9.17,432.83.06s3.92-.42,3.79,2.87C436.36,9.38,436.54,15.85,436.54,22.31Z"/><path class="cls-2" d="M388.85,38.34c4.44,4.45,8.78,9,13.37,13.33,2.76,2.58.21,3.6-1.08,5s-2.41,3-4.7.66q-13.31-13.76-27-27.12c-2.7-2.63-.21-3.6,1.08-5s2.47-3.07,4.7-.64C379.59,29.31,384.28,33.76,388.85,38.34Z"/><path class="cls-2" d="M482.13,44.11c-4.42,4.48-9,8.86-13.22,13.49-2.56,2.77-3.6.23-5.05-1.05s-3-2.38-.69-4.69q13.63-13.41,26.89-27.24c2.61-2.71,3.6-.24,5.05,1s3.09,2.45.68,4.7C491.08,34.77,486.67,39.51,482.13,44.11Z"/><path d="M892,333.76a14.25,14.25,0,0,1-1,5.51,12.21,12.21,0,0,1-2.72,4.08,11.69,11.69,0,0,1-4,2.56,13.07,13.07,0,0,1-9.43,0,11.69,11.69,0,0,1-4-2.56,12.38,12.38,0,0,1-2.73-4.08,15.2,15.2,0,0,1,0-11,12.42,12.42,0,0,1,2.73-4.11,11.82,11.82,0,0,1,4-2.55,13.07,13.07,0,0,1,9.43,0,11.82,11.82,0,0,1,4,2.55,12.24,12.24,0,0,1,2.72,4.11A14.25,14.25,0,0,1,892,333.76Zm-3.13,0a11.71,11.71,0,0,0-.69-4.12,9.22,9.22,0,0,0-1.92-3.19,8.53,8.53,0,0,0-2.94-2.05,10.07,10.07,0,0,0-7.48,0,8.27,8.27,0,0,0-2.92,2.05,9.52,9.52,0,0,0-1.91,3.19,12,12,0,0,0-.68,4.12,12.15,12.15,0,0,0,.68,4.14,9.46,9.46,0,0,0,1.91,3.2,8.27,8.27,0,0,0,2.92,2,10.07,10.07,0,0,0,7.48,0,8.53,8.53,0,0,0,2.94-2,9.17,9.17,0,0,0,1.92-3.2A11.91,11.91,0,0,0,888.91,333.76Zm-6.41,6.66q-.72-1.51-1.44-2.76a20.09,20.09,0,0,0-1.37-2.07h-1.94v4.83h-3V327.28a14.81,14.81,0,0,1,2.2-.4c.72-.07,1.35-.11,1.91-.11a7.69,7.69,0,0,1,4.52,1.12,3.93,3.93,0,0,1,1.53,3.38,3.73,3.73,0,0,1-2.31,3.57c.48.69,1,1.5,1.55,2.41a28.16,28.16,0,0,1,1.62,3.17Zm-4.75-7.27h1a5.49,5.49,0,0,0,2.23-.38,1.51,1.51,0,0,0,.83-1.53,1.47,1.47,0,0,0-.78-1.42,4.09,4.09,0,0,0-2-.42h-.63a4.73,4.73,0,0,0-.7.07Z"/><path d="M376.36,493.22v4.5h-16v5.83H376V508H360.34v5.9h16.2v4.5h-20.7V493.22Z"/><path d="M384.21,516.94a11.76,11.76,0,0,1-3.24-3.06l-.29-.61,3.78-2.74a7.28,7.28,0,0,0,1.15,1.37,8.07,8.07,0,0,0,1.51,1.19,10.63,10.63,0,0,0,5.15,1.36c4.28,0,6.41-1.08,6.41-3.27,0-1.87-1.84-2.81-4.32-3l-4.32-.36c-5-.43-8.46-2.88-8.46-7.45a6.59,6.59,0,0,1,3-5.62,11.9,11.9,0,0,1,7.09-2.08,13.68,13.68,0,0,1,7.38,1.94,11.15,11.15,0,0,1,3.09,3.06l.33.58-3.78,2.66a5.06,5.06,0,0,0-.9-1.3,8.3,8.3,0,0,0-1.3-1.15,8.9,8.9,0,0,0-4.82-1.29c-3.28,0-5.51,1.18-5.51,3.2q0,2.53,3.89,2.81l4.32.36c6,.5,9,3,9,7.52a6.54,6.54,0,0,1-3.17,5.8,14.16,14.16,0,0,1-7.92,2.08A15,15,0,0,1,384.21,516.94Z"/><path d="M427.62,493.22v4.5h-8.28v20.69h-4.5V497.72H406.6v-4.5Z"/><path d="M432.12,518.41v-5h5v5Z"/><path d="M472.55,500.52a6.48,6.48,0,0,1-1.19,3.86,23.31,23.31,0,0,1-3.74,3.78l-3.14,2.66a5.39,5.39,0,0,0-2.12,3.45h10v4.14H457.86v-2.26c0-3.35,1.51-6.3,4.5-8.82l3.85-3.28c1.48-1.26,2.2-2.48,2.2-3.67v-.18a3.08,3.08,0,0,0-3.2-3.2,3.15,3.15,0,0,0-3.21,3.38v1.12h-4.14v-1.16A7.26,7.26,0,0,1,460,495a7.14,7.14,0,0,1,5.22-2.12,7.32,7.32,0,0,1,5.21,2,7.06,7.06,0,0,1,2.13,5.29Z"/><path d="M483,518.77a7,7,0,0,1-5.22-2.16,7.3,7.3,0,0,1-2.12-5.36V500.34a7.3,7.3,0,0,1,2.12-5.36,7.49,7.49,0,0,1,10.44,0,7.26,7.26,0,0,1,2.13,5.36v10.91a7.26,7.26,0,0,1-2.13,5.36A7,7,0,0,1,483,518.77Zm3.21-7.52V500.38a3.21,3.21,0,1,0-6.41,0v10.87a3.26,3.26,0,0,0,.94,2.45A3.22,3.22,0,0,0,486.16,511.25Z"/><path d="M500.38,493.22v25.19h-4.14V499.7h-3.78v-3.24c2.41-.15,3.85-1.23,4.35-3.24Z"/><path d="M504.41,507.25l.65-14H518.2v4.14h-9.44l-.28,5a4.8,4.8,0,0,1,3.56-1.26,6.61,6.61,0,0,1,5,2.08,7.65,7.65,0,0,1,1.94,5.4v2.63a7.3,7.3,0,0,1-2.12,5.36,7.39,7.39,0,0,1-10.44,0,7.3,7.3,0,0,1-2.12-5.36v-.4h4.14v.4a3.2,3.2,0,1,0,6.4,0v-2.41c0-2.27-1.26-3.56-3.24-3.56a3,3,0,0,0-3.09,1.94Z"/></svg>