<?xml version="1.0" standalone="no"?>
<!DOCTYPE svg PUBLIC "-//W3C//DTD SVG 20010904//EN"
 "http://www.w3.org/TR/2001/REC-SVG-20010904/DTD/svg10.dtd">
<svg version="1.0" xmlns="http://www.w3.org/2000/svg"
 width="356.000000pt" height="356.000000pt" viewBox="0 0 356.000000 356.000000"
 preserveAspectRatio="xMidYMid meet">
<metadata>
Created by potrace 1.16, written by Peter Selinger 2001-2019
</metadata>
<g transform="translate(0.000000,356.000000) scale(0.100000,-0.100000)"
fill="#000000" stroke="none">
<path d="M1710 3520 c-8 -5 -36 -10 -63 -10 -63 0 -224 -25 -317 -49 -223 -57
-541 -227 -691 -368 -136 -128 -237 -242 -269 -303 -7 -14 -28 -44 -46 -68
-61 -80 -152 -284 -193 -432 -51 -184 -65 -295 -65 -505 1 -193 8 -261 43
-420 124 -549 560 -1030 1091 -1206 233 -76 373 -101 585 -102 162 -1 355 17
355 33 0 4 21 11 48 14 68 10 304 92 395 138 208 104 413 270 560 455 59 74
167 240 167 256 0 5 9 22 20 37 58 82 138 331 164 516 53 361 5 731 -131 1014
-240 501 -684 852 -1214 960 -165 34 -415 57 -439 40z m138 -582 l-3 -233 -35
0 -35 0 -3 233 -2 232 40 0 40 0 -2 -232z m-510 -181 l163 -163 -29 -27 -28
-27 -164 165 -164 164 24 26 c13 14 26 25 29 25 4 0 79 -73 169 -163z m1134
146 c10 -9 18 -23 18 -32 0 -9 -72 -88 -160 -176 l-160 -160 -27 28 -28 27
165 165 c91 91 167 165 169 165 2 0 13 -7 23 -17z m-583 -389 c39 -11 67 -29
101 -64 75 -74 80 -101 80 -432 l0 -278 -260 0 -260 0 0 293 c0 286 1 293 24
342 31 66 83 113 148 136 66 23 100 23 167 3z m-551 -281 l-3 -38 -232 -3
-233 -2 0 40 0 40 236 0 235 0 -3 -37z m1410 0 l-3 -38 -232 -3 -233 -2 0 40
0 40 236 0 235 0 -3 -37z m-592 -557 c3 -13 4 -38 2 -57 l-3 -34 -102 -3 -103
-3 -2 -412 -3 -412 -37 -3 -38 -3 -2 413 -3 413 -57 3 -58 3 -2 -608 -3 -608
-37 -3 -38 -3 -2 608 -3 608 -102 3 -103 3 0 53 c0 29 3 56 7 59 3 4 158 7
344 7 l339 0 6 -24z"/>
<path d="M1743 2441 c-49 -23 -103 -91 -103 -131 0 -41 35 -80 71 -80 44 0 66
16 74 50 9 39 33 52 76 40 25 -7 38 -6 56 5 43 29 19 84 -51 116 -52 23 -71
23 -123 0z"/>
</g>
</svg>
