<svg data-v-fde0c5aa="" xmlns="http://www.w3.org/2000/svg" viewBox="0 0 300 300" class="font"><!----><defs data-v-fde0c5aa=""><!----></defs><rect data-v-fde0c5aa="" fill="#085429" x="0" y="0" width="300px" height="300px" class="logo-background-square"></rect><defs data-v-fde0c5aa=""><!----></defs><g data-v-fde0c5aa="" id="aa18fade-6ba9-4d8d-b30d-414e070476d1" fill="#FFFFFF" transform="matrix(2.7628986528159425,0,0,2.7628986528159425,37.69717626521215,122.97890527006966)"><path d="M9.35 15.29C9.72 15.12 10.07 14.92 10.40 14.69L10.40 14.67L10.42 14.67C10.42 14.66 10.42 14.66 10.43 14.66C10.54 14.56 10.56 14.38 10.44 14.27L9.39 13.02C9.31 12.91 9.14 12.88 9.03 12.95C9.03 12.96 9.02 12.96 9.02 12.96C7.42 14.04 5.22 13.76 3.95 12.26C2.58 10.64 2.77 8.22 4.38 6.85C5.66 5.77 7.45 5.66 8.81 6.45C8.92 6.51 9.03 6.50 9.11 6.43L10.43 5.32C10.54 5.22 10.56 5.04 10.44 4.91L10.42 4.89L10.37 4.86C8.18 3.29 5.11 3.35 2.97 5.17C0.42 7.32 0.11 11.14 2.27 13.68C4.05 15.78 6.96 16.35 9.35 15.29ZM19.64 11.16C19.64 11.00 19.52 10.89 19.36 10.89L18.44 10.89L16.73 4.05L16.72 3.98C16.67 3.88 16.58 3.81 16.46 3.81L14.63 3.81C14.52 3.81 14.42 3.88 14.38 3.98L14.36 4.06L11.52 15.41C11.52 15.43 11.52 15.44 11.51 15.44L11.51 15.50C11.51 15.67 11.63 15.79 11.77 15.79L13.47 15.79C13.58 15.79 13.69 15.71 13.72 15.60C13.72 15.58 13.73 15.57 13.73 15.57L14.35 13.06L16.74 13.06L17.36 15.55L17.37 15.60C17.42 15.71 17.51 15.79 17.63 15.79L19.32 15.79C19.47 15.79 19.59 15.67 19.59 15.50L19.59 15.47L19.57 15.40L18.98 13.06L19.36 13.06C19.52 13.06 19.64 12.95 19.64 12.80ZM14.90 10.89L15.55 8.30L16.20 10.89ZM28.03 15.54C28.03 15.69 27.87 15.81 27.68 15.81L21.74 15.81C21.59 15.81 21.46 15.69 21.46 15.54L21.46 4.12C21.46 3.93 21.59 3.78 21.74 3.78L23.38 3.78C23.53 3.78 23.65 3.93 23.65 4.12L23.65 13.62L27.68 13.62C27.87 13.62 28.03 13.75 28.03 13.90ZM36.96 4.79C36.13 4.13 35 3.78 33.67 3.78L29.85 3.78C29.69 3.78 29.57 3.91 29.57 4.06L29.57 5.18L31.72 8.69L29.57 8.69L29.57 15.53C29.57 15.68 29.69 15.81 29.85 15.81L31.49 15.81C31.64 15.81 31.75 15.68 31.75 15.53L31.75 10.89L33.70 10.89C35.01 10.88 36.15 10.54 36.96 9.88C37.79 9.23 38.25 8.30 38.25 7.34C38.25 6.36 37.79 5.43 36.96 4.79ZM32.62 5.96L33.67 5.96C35.24 5.96 36.06 6.65 36.06 7.34C36.06 7.92 35.45 8.51 34.26 8.67ZM46.10 11.16C46.10 11.00 45.98 10.89 45.82 10.89L44.90 10.89L43.19 4.05L43.18 3.98C43.13 3.88 43.04 3.81 42.92 3.81L41.09 3.81C40.98 3.81 40.88 3.88 40.84 3.98L40.82 4.06L37.98 15.41C37.98 15.43 37.98 15.44 37.97 15.44L37.97 15.50C37.97 15.67 38.09 15.79 38.23 15.79L39.93 15.79C40.04 15.79 40.15 15.71 40.18 15.60C40.18 15.58 40.19 15.57 40.19 15.57L40.81 13.06L43.20 13.06L43.82 15.55L43.83 15.60C43.88 15.71 43.97 15.79 44.09 15.79L45.78 15.79C45.93 15.79 46.05 15.67 46.05 15.50L46.05 15.47L46.03 15.40L45.44 13.06L45.82 13.06C45.98 13.06 46.10 12.95 46.10 12.80ZM41.36 10.89L42.01 8.30L42.66 10.89ZM56.06 15.37L53.83 11.42L53.52 10.89L53.45 10.77C55.48 10.32 56.53 8.82 56.53 7.35C56.53 6.38 56.08 5.46 55.31 4.82C54.53 4.14 53.42 3.79 52.15 3.79L48.06 3.79C47.91 3.79 47.78 3.92 47.78 4.06L47.78 5.17L47.92 5.42L47.92 5.43L49.78 8.71L47.78 8.71L47.78 15.54C47.78 15.69 47.91 15.82 48.06 15.82L49.70 15.82C49.84 15.82 49.97 15.69 49.97 15.54L49.97 10.89L51.02 10.89L51.31 11.42L53.70 15.65L53.73 15.69C53.77 15.76 53.86 15.82 53.96 15.82L55.83 15.82C55.99 15.82 56.10 15.69 56.10 15.53C56.10 15.48 56.10 15.44 56.07 15.40ZM52.00 8.19L50.75 5.98L52.15 5.98C53.66 5.98 54.33 6.69 54.33 7.35C54.33 7.91 53.83 8.53 52.70 8.68C52.57 8.69 52.43 8.71 52.29 8.71ZM61.35 15.81C62.71 15.82 64.06 15.37 65.18 14.45C67.73 12.35 68.11 8.55 66.00 5.99C64.82 4.55 63.08 3.79 61.35 3.79L58.35 3.79C58.20 3.79 58.07 3.92 58.07 4.06L58.07 15.47C58.07 15.67 58.20 15.81 58.35 15.81ZM64.32 7.38C65.66 9.00 65.42 11.42 63.78 12.75C63.08 13.34 62.22 13.64 61.35 13.62L60.26 13.62L60.26 5.98L61.35 5.98C62.45 5.98 63.56 6.45 64.32 7.38ZM74.44 15.82C71.12 15.82 68.42 13.12 68.42 9.80C68.42 6.48 71.12 3.78 74.44 3.78C77.76 3.78 80.46 6.48 80.46 9.80C80.46 13.12 77.76 15.82 74.44 15.82ZM74.44 5.96C72.32 5.96 70.60 7.69 70.60 9.80C70.60 11.91 72.32 13.62 74.44 13.62C76.55 13.62 78.26 11.91 78.26 9.80C78.26 7.69 76.55 5.96 74.44 5.96Z"></path></g><!----><!----></svg>